<svg xmlns="http://www.w3.org/2000/svg" viewBox="0 0 128 128">
  <defs>
    <linearGradient id="bg" x1="0" y1="0" x2="1" y2="1">
      <stop offset="0%" stop-color="#4285F4"/>
      <stop offset="100%" stop-color="#1A5CCC"/>
    </linearGradient>
  </defs>
  <!-- Rounded square background -->
  <rect width="128" height="128" rx="24" ry="24" fill="url(#bg)"/>
  <!-- Monitor outline (white, 2px-equivalent stroke via fill) -->
  <path d="M20 30a6 6 0 0 1 6-6h76a6 6 0 0 1 6 6v56a6 6 0 0 1-6 6H26a6 6 0 0 1-6-6V30z" fill="rgba(255,255,255,0.25)"/>
  <path d="M26 30h76v56H26V30z" fill="url(#bg)"/>
  <!-- Small PiP window (solid white, bottom-right) -->
  <rect x="62" y="56" width="34" height="24" rx="3" ry="3" fill="#FFFFFF"/>
  <!-- Monitor outline (white border, drawn on top) -->
  <path d="M26 24a6 6 0 0 0-6 6v56a6 6 0 0 0 6 6h76a6 6 0 0 0 6-6V30a6 6 0 0 0-6-6H26zm0 5h76a1 1 0 0 1 1 1v54a1 1 0 0 1-1 1H26a1 1 0 0 1-1-1V30a1 1 0 0 1 1-1z" fill="#FFFFFF" fill-rule="evenodd"/>
  <!-- Stand -->
  <rect x="50" y="92" width="28" height="5" rx="2" fill="#FFFFFF"/>
  <rect x="42" y="99" width="44" height="5" rx="2.5" fill="#FFFFFF"/>
</svg>
